<svg id="Grupo_371" data-name="Grupo 371" xmlns="http://www.w3.org/2000/svg" width="240.964" height="58" viewBox="0 0 240.964 58">
  <g id="Grupo_254" data-name="Grupo 254">
    <g id="Grupo_219" data-name="Grupo 219">
      <rect id="Rect치ngulo_834" data-name="Rect치ngulo 834" width="240.436" height="57.473" rx="4.902" transform="translate(0.264 0.264)" fill="#f9f9f9"/>
      <path id="Trazado_603" data-name="Trazado 603" d="M259.615,252.5H24.348a2.852,2.852,0,0,1-2.848-2.848v-52.3a2.851,2.851,0,0,1,2.848-2.848H259.615a2.852,2.852,0,0,1,2.848,2.848v52.3A2.852,2.852,0,0,1,259.615,252.5ZM24.348,195.027a2.324,2.324,0,0,0-2.321,2.321v52.3a2.324,2.324,0,0,0,2.321,2.321H259.615a2.324,2.324,0,0,0,2.321-2.321v-52.3a2.324,2.324,0,0,0-2.321-2.321Z" transform="translate(-21.5 -194.5)" fill="#333"/>
    </g>
    <g id="Grupo_257" data-name="Grupo 257" transform="translate(191.585 11.822)">
      <g id="Grupo_230" data-name="Grupo 230" transform="translate(0 29.235)">
        <g id="Grupo_221" data-name="Grupo 221" transform="translate(0 1.564)">
          <path id="Trazado_616" data-name="Trazado 616" d="M384.851,271.941v-4.1h.546v.622a1.678,1.678,0,0,1,.386-.575.616.616,0,0,1,.389-.139,1.082,1.082,0,0,1,.624.224l-.209.645a.793.793,0,0,0-.445-.151.533.533,0,0,0-.358.137.76.76,0,0,0-.226.381,3.071,3.071,0,0,0-.1.811v2.147Z" transform="translate(-384.851 -267.747)" fill="#b3b3b3"/>
        </g>
        <g id="Grupo_222" data-name="Grupo 222" transform="translate(2.103 1.564)">
          <path id="Trazado_617" data-name="Trazado 617" d="M391.492,270.62l.627.089a1.8,1.8,0,0,1-.549.977,1.51,1.51,0,0,1-1.025.347,1.535,1.535,0,0,1-1.245-.554,2.369,2.369,0,0,1-.46-1.554,2.481,2.481,0,0,1,.465-1.607,1.484,1.484,0,0,1,1.207-.572,1.444,1.444,0,0,1,1.173.56,2.436,2.436,0,0,1,.456,1.576c0,.042,0,.1,0,.185h-2.67a1.707,1.707,0,0,0,.334,1.035.935.935,0,0,0,.748.36.848.848,0,0,0,.569-.2A1.351,1.351,0,0,0,391.492,270.62ZM389.5,269.5h2a1.531,1.531,0,0,0-.229-.776.889.889,0,0,0-.752-.4.9.9,0,0,0-.7.321A1.363,1.363,0,0,0,389.5,269.5Z" transform="translate(-388.839 -267.747)" fill="#b3b3b3"/>
        </g>
        <g id="Grupo_223" data-name="Grupo 223" transform="translate(6.033)">
          <path id="Trazado_618" data-name="Trazado 618" d="M400.007,268.554l.654.189a2.6,2.6,0,0,1-.739,1.408,1.875,1.875,0,0,1-1.307.485,2.126,2.126,0,0,1-1.3-.373,2.3,2.3,0,0,1-.761-1.079,4.352,4.352,0,0,1-.261-1.518,3.745,3.745,0,0,1,.295-1.543,2.176,2.176,0,0,1,2.038-1.342,1.853,1.853,0,0,1,1.247.433,2.287,2.287,0,0,1,.7,1.216l-.644.174a1.794,1.794,0,0,0-.5-.9,1.218,1.218,0,0,0-.823-.282,1.453,1.453,0,0,0-.952.313,1.655,1.655,0,0,0-.538.84,3.834,3.834,0,0,0-.155,1.087,3.9,3.9,0,0,0,.184,1.261,1.538,1.538,0,0,0,.571.805,1.451,1.451,0,0,0,.839.266,1.3,1.3,0,0,0,.93-.363A1.936,1.936,0,0,0,400.007,268.554Z" transform="translate(-396.293 -264.781)" fill="#b3b3b3"/>
        </g>
        <g id="Grupo_224" data-name="Grupo 224" transform="translate(10.664 0.096)">
          <path id="Trazado_619" data-name="Trazado 619" d="M405.076,270.625l1.9-5.661h.7l2.023,5.661h-.745l-.576-1.715h-2.066l-.543,1.715ZM406.5,268.3h1.676l-.516-1.568q-.235-.714-.351-1.174a8.052,8.052,0,0,1-.266,1.081Z" transform="translate(-405.076 -264.964)" fill="#b3b3b3"/>
        </g>
        <g id="Grupo_225" data-name="Grupo 225" transform="translate(15.811 0.096)">
          <path id="Trazado_620" data-name="Trazado 620" d="M414.838,270.625v-5.661H416.7a3.958,3.958,0,0,1,.752.054,1.383,1.383,0,0,1,.61.265,1.359,1.359,0,0,1,.4.546,1.956,1.956,0,0,1,.15.772,1.891,1.891,0,0,1-.4,1.223,1.769,1.769,0,0,1-1.449.5h-1.268v2.3Zm.654-2.97h1.278a1.234,1.234,0,0,0,.9-.269,1.039,1.039,0,0,0,.266-.761,1.131,1.131,0,0,0-.157-.608.745.745,0,0,0-.413-.334,2.457,2.457,0,0,0-.61-.051h-1.264Z" transform="translate(-414.838 -264.964)" fill="#b3b3b3"/>
        </g>
        <g id="Grupo_226" data-name="Grupo 226" transform="translate(20.045 0.096)">
          <path id="Trazado_621" data-name="Trazado 621" d="M424.5,270.625v-4.994h-1.628v-.668h3.917v.668h-1.635v4.994Z" transform="translate(-422.867 -264.964)" fill="#b3b3b3"/>
        </g>
        <g id="Grupo_227" data-name="Grupo 227" transform="translate(24.444)">
          <path id="Trazado_622" data-name="Trazado 622" d="M434.924,268.554l.654.189a2.6,2.6,0,0,1-.739,1.408,1.875,1.875,0,0,1-1.307.485,2.126,2.126,0,0,1-1.3-.373,2.3,2.3,0,0,1-.761-1.079,4.351,4.351,0,0,1-.261-1.518,3.744,3.744,0,0,1,.295-1.543,2.176,2.176,0,0,1,2.038-1.342,1.853,1.853,0,0,1,1.247.433,2.287,2.287,0,0,1,.7,1.216l-.644.174a1.793,1.793,0,0,0-.5-.9,1.218,1.218,0,0,0-.823-.282,1.453,1.453,0,0,0-.952.313,1.655,1.655,0,0,0-.538.84,3.835,3.835,0,0,0-.155,1.087,3.9,3.9,0,0,0,.184,1.261,1.538,1.538,0,0,0,.571.805,1.451,1.451,0,0,0,.839.266,1.3,1.3,0,0,0,.93-.363A1.936,1.936,0,0,0,434.924,268.554Z" transform="translate(-431.21 -264.781)" fill="#b3b3b3"/>
        </g>
        <g id="Grupo_228" data-name="Grupo 228" transform="translate(29.638 0.096)">
          <path id="Trazado_623" data-name="Trazado 623" d="M441.061,270.625v-5.661h.654v2.325h2.569v-2.325h.654v5.661h-.654v-2.668h-2.569v2.668Z" transform="translate(-441.061 -264.964)" fill="#b3b3b3"/>
        </g>
        <g id="Grupo_229" data-name="Grupo 229" transform="translate(34.06 0.096)">
          <path id="Trazado_624" data-name="Trazado 624" d="M449.447,270.625l1.9-5.661h.7l2.023,5.661h-.745l-.576-1.715h-2.066l-.543,1.715Zm1.426-2.325h1.676l-.516-1.568q-.236-.714-.351-1.174a8.08,8.08,0,0,1-.266,1.081Z" transform="translate(-449.447 -264.964)" fill="#b3b3b3"/>
        </g>
      </g>
      <g id="Grupo_246" data-name="Grupo 246" transform="translate(16.296 0.077)">
        <g id="Grupo_245" data-name="Grupo 245">
          <path id="Trazado_638" data-name="Trazado 638" d="M425.716,218.952a6.6,6.6,0,0,0-8.264-3.839l-1.694-4.993a11.874,11.874,0,0,1,14.87,6.914Z" transform="translate(-415.758 -209.482)" fill="#1c3aa9"/>
        </g>
      </g>
      <g id="Grupo_248" data-name="Grupo 248" transform="translate(8.243 0.716)">
        <g id="Grupo_247" data-name="Grupo 247">
          <path id="Trazado_639" data-name="Trazado 639" d="M401.1,225.68a11.873,11.873,0,0,1,7.438-14.987l1.694,4.993a6.6,6.6,0,0,0-4.129,8.329Z" transform="translate(-400.484 -210.693)" fill="#4388f2"/>
        </g>
      </g>
      <g id="Grupo_250" data-name="Grupo 250" transform="translate(8.858 14.038)">
        <g id="Grupo_249" data-name="Grupo 249">
          <path id="Trazado_640" data-name="Trazado 640" d="M412.908,245.736a11.87,11.87,0,0,1-11.257-8.112l5-1.664a6.592,6.592,0,0,0,10.914,2.573,6.649,6.649,0,0,0,.847-1.036l4.4,2.9a11.924,11.924,0,0,1-1.519,1.86A11.783,11.783,0,0,1,412.908,245.736Z" transform="translate(-401.651 -235.96)" fill="#b3b3b3"/>
        </g>
      </g>
      <g id="Grupo_251" data-name="Grupo 251" transform="translate(22.523 1.704)">
        <path id="Trazado_641" data-name="Trazado 641" d="M437.057,222.057l-.183-9.491-9.308,9.308Z" transform="translate(-427.566 -212.566)" fill="#1c3aa9"/>
      </g>
      <g id="Grupo_252" data-name="Grupo 252" transform="translate(8.164 12.655)">
        <path id="Trazado_642" data-name="Trazado 642" d="M400.335,233.335l.183,9.491,9.308-9.308Z" transform="translate(-400.335 -233.335)" fill="#b3b3b3"/>
      </g>
      <g id="Grupo_253" data-name="Grupo 253" transform="translate(9.868)">
        <path id="Trazado_643" data-name="Trazado 643" d="M413.057,209.335l-9.491.183,9.308,9.308Z" transform="translate(-403.566 -209.335)" fill="#4388f2"/>
      </g>
    </g>
    <text id="No_soy_un_robot" data-name="No soy un robot" transform="translate(38.982 33)" font-size="12" font-family="Prompt-Regular, Prompt"><tspan x="0" y="0">No soy un robot</tspan></text>
  </g>
  <rect id="Rect치ngulo_835" data-name="Rect치ngulo 835" width="17" height="17" rx="3" transform="translate(14.982 20.5)" fill="#fff" stroke="gray" stroke-miterlimit="10" stroke-width="0.868"/>
</svg>
