<svg height="19.655" viewBox="0 0 30 19.655" width="30" xmlns="http://www.w3.org/2000/svg"><path d="m0 354.994a2.247 2.247 0 0 0 2.247 2.247h25.506a2.247 2.247 0 0 0 2.247-2.247v-1.894h-30z" fill="#c8414b" transform="translate(0 -337.586)"/><path d="m27.753 88.276h-25.506a2.247 2.247 0 0 0 -2.247 2.247v1.891h30v-1.891a2.247 2.247 0 0 0 -2.247-2.247z" fill="#c8414b" transform="translate(0 -88.276)"/><path d="m0 4.138h30v11.379h-30z" fill="#ffd250"/><path d="m209.117 218.6.439-1.973a.291.291 0 0 0 -.284-.354h-.309a.291.291 0 0 0 -.284.354z" fill="#c8414b" transform="translate(-196.444 -208.775)"/><path d="m12.155 8.793h1.034v4.396h-1.034z" fill="#f5f5f5"/><path d="m11.896 8.276h1.552v.517h-1.552z" fill="#fab446"/><path d="m10.862 9.828h2.586v.517h-2.586z" fill="#c8414b"/><path d="m204.586 274.69-1.552-.517v-.517l1.552.517z" fill="#c8414b" transform="translate(-191.138 -262.793)"/><path d="m76.7 218.6.439-1.973a.291.291 0 0 0 -.284-.354h-.309a.291.291 0 0 0 -.284.354z" fill="#c8414b" transform="translate(-71.789 -208.775)"/><path d="m106.448 229.517a.517.517 0 0 0 -.517.517v3.366c0 .628.587 1.81 2.586 1.81s2.586-1.182 2.586-1.81v-3.362a.517.517 0 0 0 -.517-.517z" fill="#f5f5f5" transform="translate(-99.724 -221.241)"/><path d="m108.517 232.1h-2.586v-2.069a.517.517 0 0 1 .517-.517h2.069z" fill="#c8414b" transform="translate(-99.724 -221.241)"/><path d="m150.069 273.655h2.586v1.293a1.293 1.293 0 0 1 -1.293 1.293 1.293 1.293 0 0 1 -1.293-1.293z" fill="#c8414b" transform="translate(-141.276 -262.793)"/><path d="m105.931 273.655h2.586v1.293a1.293 1.293 0 0 1 -1.293 1.293 1.293 1.293 0 0 1 -1.293-1.293z" fill="#fab446" transform="translate(-99.724 -262.793)"/><path d="m132.93 275.977v-2.322h-.517v2.56a1.28 1.28 0 0 0 .517-.238z" fill="#c8414b" transform="translate(-124.655 -262.793)"/><path d="m115.275 276.215v-2.56h-.517v2.322a1.281 1.281 0 0 0 .517.238z" fill="#c8414b" transform="translate(-108.034 -262.793)"/><path d="m6.724 9.828h1.552v.517h-1.552z" fill="#ffb441"/><path d="m6.724 8.793h1.552v.517h-1.552z" fill="#fab446"/><path d="m6.982 9.101h1.034v.937h-1.034z" fill="#fab446"/><path d="m4.396 8.793h1.034v4.396h-1.034z" fill="#f5f5f5"/><path d="m4.138 12.931h1.552v.517h-1.552z" fill="#fab446"/><path d="m4.138 8.276h1.552v.517h-1.552z" fill="#fab446"/><path d="m3.879 13.448h2.069v.517h-2.069z" fill="#5064aa"/><path d="m12.155 12.931h1.552v.517h-1.552z" fill="#fab446"/><path d="m11.638 13.448h2.069v.517h-2.069z" fill="#5064aa"/><path d="m7.242 7.759h3.103v.517h-3.103z" fill="#fab446"/><path d="m8.535 6.207h.517v1.552h-.517z" fill="#ffb441"/><g fill="#f5f5f5"><path d="m128.776 182.518a.776.776 0 1 1 .776-.776.777.777 0 0 1 -.776.776zm0-1.034a.259.259 0 1 0 .259.259.259.259 0 0 0 -.259-.26z" transform="translate(-120.5 -175.535)"/><path d="m146.432 182.518a.776.776 0 1 1 .776-.776.777.777 0 0 1 -.776.776zm0-1.034a.259.259 0 1 0 .259.259.259.259 0 0 0 -.259-.26z" transform="translate(-137.121 -175.535)"/><path d="m164.087 191.346a.776.776 0 1 1 .776-.776.777.777 0 0 1 -.776.776zm0-1.034a.259.259 0 1 0 .259.259.259.259 0 0 0 -.259-.26z" transform="translate(-153.742 -183.846)"/><path d="m111.121 191.346a.776.776 0 1 1 .776-.776.777.777 0 0 1 -.776.776zm0-1.034a.259.259 0 1 0 .259.259.259.259 0 0 0 -.259-.26z" transform="translate(-103.879 -183.846)"/></g><path d="m159.931 283v.259a.259.259 0 1 1 -.517 0v-.259zm.517-.517h-1.548v.776a.776.776 0 1 0 1.552 0v-.776z" fill="#fab446" transform="translate(-149.586 -271.104)"/><path d="m163.827 239.9a.517.517 0 0 1 -.517-.517v-.517a.517.517 0 0 1 .517-.517.517.517 0 0 1 .517.517v.517a.517.517 0 0 1 -.517.517z" fill="#ffa0d2" transform="translate(-153.741 -229.551)"/><circle cx="8.793" cy="10.862" fill="#5064aa" r=".776"/><path d="m8.535 5.172h.517v1.552h-.517z" fill="#fab446"/><path d="m115.275 195.759-.517-.517.3-.3a2.5 2.5 0 0 1 1.766-.731 2.5 2.5 0 0 1 1.766.731l.3.3-.517.517z" fill="#c8414b" transform="translate(-108.034 -188)"/><circle cx="8.794" cy="7.242" fill="#ffd250" r=".259"/><circle cx="7.759" cy="7.242" fill="#ffd250" r=".259"/><circle cx="9.828" cy="7.242" fill="#ffd250" r=".259"/><g fill="#c8414b" transform="translate(4.138 9.828)"><path d="m0 0h2.586v.517h-2.586z"/><path d="m70.621 274.69 1.552-.517v-.517l-1.552.517z" transform="translate(-70.621 -272.621)"/></g></svg>