<svg id="facebook" xmlns="http://www.w3.org/2000/svg" width="12.159" height="26.173" viewBox="0 0 12.159 26.173">
  <g id="Grupo_766" data-name="Grupo 766" transform="translate(0 0)">
    <path id="Trazado_983" data-name="Trazado 983" d="M335.758,686.188v12.654a.33.33,0,0,0,.33.329h4.7a.33.33,0,0,0,.33-.329V685.981h3.407a.33.33,0,0,0,.328-.3l.328-3.874a.33.33,0,0,0-.328-.358h-3.735V678.7a1.167,1.167,0,0,1,1.167-1.167h2.626a.33.33,0,0,0,.329-.33v-3.874a.33.33,0,0,0-.329-.33h-4.436a4.714,4.714,0,0,0-4.715,4.714v3.735h-2.349a.33.33,0,0,0-.33.33v3.875a.329.329,0,0,0,.33.329h2.349Z" transform="translate(-333.079 -672.998)" fill="#f7f7f7" fill-rule="evenodd"/>
  </g>
</svg>
