<svg xmlns="http://www.w3.org/2000/svg" width="22.019" height="21.067" viewBox="0 0 22.019 21.067">
  <path id="fav" d="M1919.091-640.35l3.115,5.4a.338.338,0,0,0,.223.162l6.1,1.293a.338.338,0,0,1,.181.557l-4.176,4.633a.339.339,0,0,0-.085.262l.656,6.2a.338.338,0,0,1-.474.344l-5.7-2.54a.338.338,0,0,0-.275,0l-5.7,2.54a.338.338,0,0,1-.473-.344l.656-6.2a.338.338,0,0,0-.085-.262l-4.176-4.633a.338.338,0,0,1,.181-.557l6.1-1.293a.338.338,0,0,0,.223-.162l3.115-5.4A.338.338,0,0,1,1919.091-640.35Z" transform="translate(-1907.789 641.519)" fill="none" stroke="#7e94aa" stroke-miterlimit="10" stroke-width="2"/>
</svg>
