<svg xmlns="http://www.w3.org/2000/svg" width="26.858" height="25.676" viewBox="0 0 26.858 25.676">
  <path id="fav_solid" d="M1921.581-640.309l3.869,6.71a.419.419,0,0,0,.277.2l7.577,1.606a.42.42,0,0,1,.225.691l-5.187,5.753a.421.421,0,0,0-.105.325l.814,7.7a.42.42,0,0,1-.589.427l-7.074-3.154a.419.419,0,0,0-.342,0l-7.074,3.154a.419.419,0,0,1-.588-.427l.814-7.7a.42.42,0,0,0-.105-.325l-5.186-5.753a.42.42,0,0,1,.225-.691l7.577-1.606a.42.42,0,0,0,.276-.2l3.869-6.71A.419.419,0,0,1,1921.581-640.309Z" transform="translate(-1907.788 641.519)" fill="#7e94aa" stroke="#7e94aa" stroke-miterlimit="10" stroke-width="2"/>
</svg>
