<svg xmlns="http://www.w3.org/2000/svg" width="23.867" height="18.371" viewBox="0 0 23.867 18.371">
  <g id="garaje" transform="translate(0)">
    <path id="Trazado_592" data-name="Trazado 592" d="M-576.584,1048.828l-1.075-1.2a.422.422,0,0,0-.314-.14h-1.616c-.545-1.535-1.283-3.239-2.008-3.722-1.3-.864-6.226-.809-6.814-.8-.587-.011-5.518-.065-6.814.8-.725.483-1.463,2.188-2.008,3.722h-1.616a.422.422,0,0,0-.314.14l-1.075,1.2a.422.422,0,0,0-.071.453.422.422,0,0,0,.385.25h2.032c-.051.174-.093.32-.124.432a3.022,3.022,0,0,0-1.4,1.271,5.1,5.1,0,0,0-.475,1.971v0h0a14.736,14.736,0,0,0,.47,4.18,1.332,1.332,0,0,0,.6.822v1.746a1.379,1.379,0,0,0,1.377,1.377h2.934a1.379,1.379,0,0,0,1.377-1.377v-.7l.382.187h8.659l.382-.187v.7a1.379,1.379,0,0,0,1.377,1.377h2.934a1.378,1.378,0,0,0,1.377-1.377v-1.746a1.331,1.331,0,0,0,.6-.822,14.733,14.733,0,0,0,.47-4.179h0v0a5.1,5.1,0,0,0-.475-1.97,3.023,3.023,0,0,0-1.395-1.271c-.031-.111-.073-.258-.124-.432h2.031a.422.422,0,0,0,.385-.25A.422.422,0,0,0-576.584,1048.828Zm-22.4-.141.32-.358h1.14c-.04.123-.079.242-.115.358Zm-.079,4.942h2.227l1.028.982h-3.222C-599.052,1054.285-599.064,1053.955-599.059,1053.629Zm5.093,6.326a.534.534,0,0,1-.534.533h-2.934a.534.534,0,0,1-.534-.533v-1.546h3.111l.891.436Zm14.578.533h-2.934a.534.534,0,0,1-.534-.533v-1.11l.891-.436h3.111v1.546A.534.534,0,0,1-579.387,1060.489Zm1.592-5.878h-3.222l1.028-.982h2.227C-577.757,1053.955-577.769,1054.285-577.795,1054.611Zm-.367-2.994a3.744,3.744,0,0,1,.337,1.169h-2.333a.422.422,0,0,0-.291.117l-1.911,1.825a.422.422,0,0,0-.1.462.422.422,0,0,0,.391.265h4.179c-.1.7-.235,1.325-.335,1.734a.5.5,0,0,1-.485.378h-3.45l-2.116,1.037h-8.269l-2.116-1.037h-3.45a.5.5,0,0,1-.485-.378c-.1-.408-.235-1.032-.335-1.733h4.179a.422.422,0,0,0,.391-.265.422.422,0,0,0-.1-.462l-1.91-1.825a.423.423,0,0,0-.291-.117H-599a3.738,3.738,0,0,1,.337-1.169,2.308,2.308,0,0,1,1.121-.951.455.455,0,0,0,.069-.032c2.173-.991,6.493-.992,9.059-.992s6.891,0,9.062.993a.4.4,0,0,0,.065.03A2.31,2.31,0,0,1-578.162,1051.617Zm-10.248-2.818c-3.229,0-6.45.081-8.612.765.595-1.994,1.567-4.633,2.265-5.1.815-.543,4.318-.691,6.339-.657h.014c2.022-.033,5.525.114,6.339.657.7.465,1.67,3.1,2.266,5.1C-581.96,1048.88-585.18,1048.8-588.41,1048.8Zm9.224-.111c-.037-.116-.075-.235-.115-.358h1.14l.321.358Z" transform="translate(600.344 -1042.961)"/>
    <path id="Trazado_593" data-name="Trazado 593" d="M-568.471,1075.592h-10.267a.422.422,0,0,0-.422.422.422.422,0,0,0,.422.422h10.267a.422.422,0,0,0,.422-.422A.422.422,0,0,0-568.471,1075.592Z" transform="translate(585.538 -1065.767)"/>
    <path id="Trazado_594" data-name="Trazado 594" d="M-564.493,1081.654h-4.245a.422.422,0,0,0-.422.422.421.421,0,0,0,.422.422h4.245a.421.421,0,0,0,.422-.422A.422.422,0,0,0-564.493,1081.654Z" transform="translate(578.549 -1070.004)"/>
  </g>
</svg>
