<svg xmlns="http://www.w3.org/2000/svg" width="16.974" height="17.004" viewBox="0 0 16.974 17.004">
  <path id="Icon_feather-phone" data-name="Icon feather-phone" d="M3.168,14.232V16.49A1.506,1.506,0,0,0,4.809,18a14.9,14.9,0,0,0,6.5-2.311,14.68,14.68,0,0,0,4.517-4.517,14.9,14.9,0,0,0,2.311-6.527A1.506,1.506,0,0,0,16.636,3H14.378a1.506,1.506,0,0,0-1.506,1.295,9.666,9.666,0,0,1-.527,2.115A1.506,1.506,0,0,0,12.684,8l.956.956a12.045,12.045,0,0,1-4.517,4.517l-.956-.956a1.506,1.506,0,0,0-1.588-.339,9.666,9.666,0,0,1-2.115.527,1.506,1.506,0,0,0-1.295,1.528Z" transform="translate(-2.167 -2)" fill="none" stroke="#f7f7f7" stroke-linecap="round" stroke-linejoin="round" stroke-width="2"/>
</svg>
