<svg xmlns="http://www.w3.org/2000/svg" width="15.953" height="15.953" viewBox="0 0 15.953 15.953">
  <path id="Icon_awesome-whatsapp" data-name="Icon awesome-whatsapp" d="M13.564,4.568a7.908,7.908,0,0,0-12.442,9.54L0,18.2l4.191-1.1a7.881,7.881,0,0,0,3.778.961h0a7.981,7.981,0,0,0,7.98-7.905A7.936,7.936,0,0,0,13.564,4.568ZM7.973,16.732a6.559,6.559,0,0,1-3.347-.915l-.239-.142L1.9,16.326,2.564,13.9l-.157-.249a6.583,6.583,0,1,1,12.21-3.493,6.644,6.644,0,0,1-6.645,6.573Zm3.6-4.921c-.2-.1-1.168-.577-1.35-.641s-.313-.1-.445.1-.509.641-.627.776-.231.15-.427.05a5.377,5.377,0,0,1-2.689-2.35c-.2-.349.2-.324.58-1.079A.366.366,0,0,0,6.6,8.321c-.05-.1-.445-1.072-.609-1.467s-.324-.331-.445-.338S5.3,6.509,5.17,6.509a.732.732,0,0,0-.527.246A2.22,2.22,0,0,0,3.953,8.4a3.87,3.87,0,0,0,.8,2.044,8.827,8.827,0,0,0,3.376,2.984,3.865,3.865,0,0,0,2.372.495,2.023,2.023,0,0,0,1.332-.94,1.652,1.652,0,0,0,.114-.94C11.9,11.957,11.772,11.907,11.577,11.811Z" transform="translate(0 -2.25)" fill="#f7f7f7"/>
</svg>
