<svg id="instagram" xmlns="http://www.w3.org/2000/svg" width="27.301" height="27.301" viewBox="0 0 27.301 27.301">
  <path id="Trazado_984" data-name="Trazado 984" d="M397.672,677.584a1.6,1.6,0,1,0,1.606,1.6A1.6,1.6,0,0,0,397.672,677.584Zm-7.135,2.058a6.742,6.742,0,1,0,6.742,6.742A6.75,6.75,0,0,0,390.537,679.642Zm0,11.061a4.319,4.319,0,1,1,4.319-4.319A4.324,4.324,0,0,1,390.537,690.7Zm13.6-9.922a8.223,8.223,0,0,0-8.224-8.224H385.064a8.224,8.224,0,0,0-8.224,8.224v10.855a8.223,8.223,0,0,0,8.224,8.223h10.853a8.223,8.223,0,0,0,8.224-8.223Zm-2.576,10.855a5.647,5.647,0,0,1-5.648,5.647H385.064a5.648,5.648,0,0,1-5.649-5.647V680.781a5.649,5.649,0,0,1,5.649-5.648h10.853a5.648,5.648,0,0,1,5.648,5.648Z" transform="translate(-376.84 -672.557)" fill="#f7f7f7"/>
</svg>
