<svg xmlns="http://www.w3.org/2000/svg" width="233.902" height="27.511" viewBox="0 0 233.902 27.511">
  <g id="Grupo_848" data-name="Grupo 848" transform="translate(-216.139 -223.141)">
    <g id="Grupo_846" data-name="Grupo 846" transform="translate(216.139 223.141)">
      <path id="Trazado_1014" data-name="Trazado 1014" d="M264.536,229.847h-8.522l-.04-.033-9.94,6.93-6.522,4.546v9.223h-5.341V238.5l7.8-5.441-4.032-3.244L221.48,241.289v9.223h-5.341V238.5l22.037-15.358,8.365,6.736,9.663-6.736Z" transform="translate(-216.139 -223.141)" fill="#c5cfda"/>
    </g>
    <g id="Grupo_847" data-name="Grupo 847" transform="translate(250.877 234.352)">
      <path id="Trazado_1015" data-name="Trazado 1015" d="M252.864,231.08v14.09h-3.433v-8.812l-3.051,8.812H243.41l-3.071-8.831v8.831h-3.432V231.08h4.2l3.834,9.814,3.754-9.814Z" transform="translate(-236.906 -229.011)" fill="#343534"/>
      <path id="Trazado_1016" data-name="Trazado 1016" d="M248.232,230.355a2.411,2.411,0,0,1,2.971,0,1.678,1.678,0,0,1,.562,1.295,1.657,1.657,0,0,1-.562,1.276,2.418,2.418,0,0,1-2.971,0,1.657,1.657,0,0,1-.562-1.276A1.678,1.678,0,0,1,248.232,230.355Zm3.192,4.448V246h-3.433V234.8Z" transform="translate(-229.664 -229.843)" fill="#343534"/>
      <path id="Trazado_1017" data-name="Trazado 1017" d="M254.761,231.02v14.19H251.33V231.02Z" transform="translate(-227.202 -229.051)" fill="#343534"/>
      <path id="Trazado_1018" data-name="Trazado 1018" d="M264.964,234.02a5.159,5.159,0,0,1,1.134,3.533v6.5h-3.433v-6.1a2.475,2.475,0,0,0-.592-1.756,2.055,2.055,0,0,0-1.574-.632,2.152,2.152,0,0,0-1.658.662,2.681,2.681,0,0,0-.612,1.889v5.94H254.8v-11.2h3.433V234.9a3.7,3.7,0,0,1,1.437-1.586,4.215,4.215,0,0,1,2.237-.582A3.883,3.883,0,0,1,264.964,234.02Z" transform="translate(-224.869 -227.897)" fill="#343534"/>
      <path id="Trazado_1019" data-name="Trazado 1019" d="M280.674,234.011a5,5,0,0,1,1.184,3.541v6.5h-3.412v-6.1a2.29,2.29,0,0,0-.572-1.656,2.062,2.062,0,0,0-1.556-.592,2.1,2.1,0,0,0-1.616.634,2.5,2.5,0,0,0-.592,1.776v5.94h-3.433v-6.1a2.315,2.315,0,0,0-.562-1.656,2.029,2.029,0,0,0-1.546-.592,2.164,2.164,0,0,0-1.626.622,2.467,2.467,0,0,0-.6,1.788v5.94h-3.433v-11.2h3.433v1.905a3.33,3.33,0,0,1,1.355-1.484,4.1,4.1,0,0,1,2.138-.544,4.327,4.327,0,0,1,2.268.592,3.732,3.732,0,0,1,1.485,1.7,4.491,4.491,0,0,1,1.6-1.668,4.6,4.6,0,0,1,5.49.654Z" transform="translate(-219.412 -227.897)" fill="#343534"/>
      <path id="Trazado_1020" data-name="Trazado 1020" d="M284.061,233.415a5.088,5.088,0,0,1,2.066,2,6.544,6.544,0,0,1,0,6.1,5.063,5.063,0,0,1-2.066,2,6.787,6.787,0,0,1-5.973,0,5.037,5.037,0,0,1-2.076-2,6.544,6.544,0,0,1,0-6.1,5.062,5.062,0,0,1,2.076-2,6.8,6.8,0,0,1,5.973,0Zm-4.637,2.991a2.882,2.882,0,0,0-.672,2.057,2.84,2.84,0,0,0,.672,2.047,2.192,2.192,0,0,0,1.654.7,2.168,2.168,0,0,0,1.648-.7,2.882,2.882,0,0,0,.662-2.047,2.925,2.925,0,0,0-.662-2.057,2.163,2.163,0,0,0-1.648-.711A2.188,2.188,0,0,0,279.424,236.406Z" transform="translate(-211.105 -227.905)" fill="#343534"/>
      <path id="Trazado_1021" data-name="Trazado 1021" d="M292.738,234.828a4.77,4.77,0,0,1,1.726,1.987,7.7,7.7,0,0,1,0,6.112,4.728,4.728,0,0,1-1.726,2,4.537,4.537,0,0,1-2.479.693,4.041,4.041,0,0,1-2.208-.582,3.384,3.384,0,0,1-1.345-1.584v2.026h-3.433V230.624h3.433V236.3a3.392,3.392,0,0,1,1.345-1.587,4.054,4.054,0,0,1,2.208-.58A4.535,4.535,0,0,1,292.738,234.828Zm-5.36,3.051a3.212,3.212,0,0,0,0,3.985,2.516,2.516,0,0,0,3.553.02,3.33,3.33,0,0,0,0-4.013,2.308,2.308,0,0,0-1.776-.724A2.336,2.336,0,0,0,287.378,237.879Z" transform="translate(-205.712 -229.318)" fill="#343534"/>
      <path id="Trazado_1022" data-name="Trazado 1022" d="M291.779,230.355a2.411,2.411,0,0,1,2.971,0,1.678,1.678,0,0,1,.562,1.295,1.657,1.657,0,0,1-.562,1.276,2.418,2.418,0,0,1-2.971,0,1.657,1.657,0,0,1-.562-1.276A1.678,1.678,0,0,1,291.779,230.355Zm3.192,4.448V246h-3.433V234.8Z" transform="translate(-200.367 -229.843)" fill="#343534"/>
      <path id="Trazado_1023" data-name="Trazado 1023" d="M298.31,230.624v14.853h-3.432V230.624Z" transform="translate(-197.905 -229.318)" fill="#343534"/>
      <path id="Trazado_1024" data-name="Trazado 1024" d="M298.715,230.355a2.411,2.411,0,0,1,2.971,0,1.678,1.678,0,0,1,.562,1.295,1.657,1.657,0,0,1-.562,1.276,2.418,2.418,0,0,1-2.971,0,1.657,1.657,0,0,1-.562-1.276A1.678,1.678,0,0,1,298.715,230.355Zm3.19,4.448V246h-3.431V234.8Z" transform="translate(-195.701 -229.843)" fill="#343534"/>
      <path id="Trazado_1025" data-name="Trazado 1025" d="M308.51,233.3a3.526,3.526,0,0,1,1.367,1.587v-2.027h3.412v11.2h-3.412v-2.026a3.517,3.517,0,0,1-1.367,1.584,4.036,4.036,0,0,1-2.208.582,4.535,4.535,0,0,1-2.477-.693,4.731,4.731,0,0,1-1.728-2,7.7,7.7,0,0,1,0-6.112,4.773,4.773,0,0,1,1.728-1.987,4.534,4.534,0,0,1,2.477-.691A4.05,4.05,0,0,1,308.51,233.3Zm-2.879,3.153a3.33,3.33,0,0,0,0,4.013,2.516,2.516,0,0,0,3.553-.02,3.212,3.212,0,0,0,0-3.985,2.336,2.336,0,0,0-1.777-.733A2.308,2.308,0,0,0,305.631,236.458Z" transform="translate(-193.473 -227.905)" fill="#343534"/>
      <path id="Trazado_1026" data-name="Trazado 1026" d="M315.038,233.337a4.227,4.227,0,0,1,2.2-.6v3.675h-.984a3.386,3.386,0,0,0-2.118.58,2.342,2.342,0,0,0-.754,1.969v5.1h-3.431v-11.2h3.431v2.106A4.876,4.876,0,0,1,315.038,233.337Z" transform="translate(-187.765 -227.897)" fill="#343534"/>
      <path id="Trazado_1027" data-name="Trazado 1027" d="M315.537,230.355a2.411,2.411,0,0,1,2.971,0,1.678,1.678,0,0,1,.562,1.295,1.657,1.657,0,0,1-.562,1.276,2.418,2.418,0,0,1-2.971,0,1.655,1.655,0,0,1-.56-1.276A1.677,1.677,0,0,1,315.537,230.355Zm3.192,4.448V246H315.3V234.8Z" transform="translate(-184.382 -229.843)" fill="#343534"/>
      <path id="Trazado_1028" data-name="Trazado 1028" d="M325.334,233.3a3.512,3.512,0,0,1,1.365,1.587v-2.027h3.412v11.2H326.7v-2.026a3.5,3.5,0,0,1-1.365,1.584,4.041,4.041,0,0,1-2.208.582,4.537,4.537,0,0,1-2.479-.693,4.728,4.728,0,0,1-1.726-2,7.7,7.7,0,0,1,0-6.112,4.77,4.77,0,0,1,1.726-1.987,4.535,4.535,0,0,1,2.479-.691A4.054,4.054,0,0,1,325.334,233.3Zm-2.88,3.153a3.33,3.33,0,0,0,0,4.013,2.516,2.516,0,0,0,3.553-.02,3.212,3.212,0,0,0,0-3.985,2.336,2.336,0,0,0-1.777-.733A2.307,2.307,0,0,0,322.453,236.458Z" transform="translate(-182.154 -227.905)" fill="#343534"/>
      <path id="Trazado_1029" data-name="Trazado 1029" d="M329.966,237.452v3.431h-3.553v-3.431Z" transform="translate(-176.688 -224.724)" fill="#343534"/>
      <path id="Trazado_1030" data-name="Trazado 1030" d="M338.53,233.918a5.291,5.291,0,0,1,1.847,3.28h-3.633a1.912,1.912,0,0,0-.662-1.122,1.952,1.952,0,0,0-1.265-.4,1.831,1.831,0,0,0-1.485.714,4,4,0,0,0,0,4.154,1.83,1.83,0,0,0,1.485.713,1.951,1.951,0,0,0,1.265-.4,1.917,1.917,0,0,0,.662-1.122h3.633a5.3,5.3,0,0,1-1.847,3.282A5.562,5.562,0,0,1,334.9,244.2a6.02,6.02,0,0,1-2.921-.693,4.938,4.938,0,0,1-2-2,6.193,6.193,0,0,1-.723-3.051,6.258,6.258,0,0,1,.713-3.061,4.9,4.9,0,0,1,2-1.987,6.077,6.077,0,0,1,2.931-.691A5.554,5.554,0,0,1,338.53,233.918Z" transform="translate(-174.775 -227.905)" fill="#343534"/>
      <path id="Trazado_1031" data-name="Trazado 1031" d="M345.426,233.415a5.092,5.092,0,0,1,2.068,2,6.557,6.557,0,0,1,0,6.1,5.066,5.066,0,0,1-2.068,2,6.783,6.783,0,0,1-5.972,0,5.051,5.051,0,0,1-2.078-2,6.557,6.557,0,0,1,0-6.1,5.076,5.076,0,0,1,2.078-2,6.8,6.8,0,0,1,5.972,0Zm-4.637,2.991a2.889,2.889,0,0,0-.672,2.057,2.847,2.847,0,0,0,.672,2.047,2.2,2.2,0,0,0,1.656.7,2.164,2.164,0,0,0,1.646-.7,2.874,2.874,0,0,0,.662-2.047,2.917,2.917,0,0,0-.662-2.057,2.16,2.16,0,0,0-1.646-.711A2.192,2.192,0,0,0,340.789,236.406Z" transform="translate(-169.818 -227.905)" fill="#343534"/>
      <path id="Trazado_1032" data-name="Trazado 1032" d="M362.4,234.011a5,5,0,0,1,1.184,3.541v6.5h-3.412v-6.1a2.29,2.29,0,0,0-.572-1.656,2.062,2.062,0,0,0-1.556-.592,2.1,2.1,0,0,0-1.616.634,2.5,2.5,0,0,0-.592,1.776v5.94h-3.433v-6.1a2.315,2.315,0,0,0-.562-1.656,2.029,2.029,0,0,0-1.546-.592,2.164,2.164,0,0,0-1.626.622,2.468,2.468,0,0,0-.6,1.788v5.94H344.64v-11.2h3.432v1.905a3.33,3.33,0,0,1,1.355-1.484,4.1,4.1,0,0,1,2.138-.544,4.327,4.327,0,0,1,2.268.592,3.732,3.732,0,0,1,1.485,1.7,4.492,4.492,0,0,1,1.6-1.668,4.6,4.6,0,0,1,5.49.654Z" transform="translate(-164.425 -227.897)" fill="#343534"/>
    </g>
  </g>
</svg>
