<svg xmlns="http://www.w3.org/2000/svg" width="350" height="41.166" viewBox="0 0 350 41.166">
  <g id="Logo_white" transform="translate(-216.139 -223.141)">
    <g id="Grupo_846" data-name="Grupo 846" transform="translate(216.139 223.141)">
      <path id="Trazado_1014" data-name="Trazado 1014" d="M288.558,233.175H275.806l-.06-.05-14.874,10.369-9.76,6.8v13.8h-7.992V246.122L254.8,237.98l-6.034-4.855L224.131,250.3v13.8h-7.992V246.122l32.975-22.981,12.517,10.079,14.46-10.079Z" transform="translate(-216.139 -223.141)" fill="#c5cfda"/>
    </g>
    <g id="Grupo_847" data-name="Grupo 847" transform="translate(268.12 239.917)">
      <path id="Trazado_1015" data-name="Trazado 1015" d="M260.785,231.08v21.083h-5.136V238.977l-4.566,13.186h-4.445l-4.6-13.214v13.214h-5.136V231.08h6.278l5.737,14.685,5.617-14.685Z" transform="translate(-236.906 -227.984)" fill="#fff"/>
      <path id="Trazado_1016" data-name="Trazado 1016" d="M248.511,230.609a3.608,3.608,0,0,1,4.445,0,2.511,2.511,0,0,1,.841,1.937,2.479,2.479,0,0,1-.841,1.91,3.618,3.618,0,0,1-4.445,0,2.479,2.479,0,0,1-.841-1.91A2.511,2.511,0,0,1,248.511,230.609Zm4.776,6.656v16.758h-5.136V237.265Z" transform="translate(-220.727 -229.843)" fill="#fff"/>
      <path id="Trazado_1017" data-name="Trazado 1017" d="M256.464,231.02v21.233H251.33V231.02Z" transform="translate(-215.226 -228.074)" fill="#fff"/>
      <path id="Trazado_1018" data-name="Trazado 1018" d="M270.011,234.657a7.719,7.719,0,0,1,1.7,5.286v9.732h-5.136v-9.131a3.7,3.7,0,0,0-.886-2.628,3.076,3.076,0,0,0-2.355-.946,3.22,3.22,0,0,0-2.481.991,4.012,4.012,0,0,0-.916,2.826v8.888H254.8V232.918h5.136v3.061a5.534,5.534,0,0,1,2.15-2.373,6.307,6.307,0,0,1,3.347-.871A5.81,5.81,0,0,1,270.011,234.657Z" transform="translate(-210.015 -225.496)" fill="#fff"/>
      <path id="Trazado_1019" data-name="Trazado 1019" d="M289.491,234.645a7.479,7.479,0,0,1,1.772,5.3v9.732h-5.106v-9.131a3.427,3.427,0,0,0-.856-2.478,3.086,3.086,0,0,0-2.328-.886,3.145,3.145,0,0,0-2.418.949,3.739,3.739,0,0,0-.886,2.658v8.888h-5.136v-9.131a3.464,3.464,0,0,0-.841-2.478,3.036,3.036,0,0,0-2.313-.886,3.238,3.238,0,0,0-2.433.931,3.692,3.692,0,0,0-.9,2.676v8.888h-5.136V232.918h5.136v2.851a4.982,4.982,0,0,1,2.027-2.22,6.129,6.129,0,0,1,3.2-.813,6.474,6.474,0,0,1,3.394.886,5.585,5.585,0,0,1,2.223,2.541,6.72,6.72,0,0,1,2.388-2.5,6.879,6.879,0,0,1,8.215.979Z" transform="translate(-197.822 -225.496)" fill="#fff"/>
      <path id="Trazado_1020" data-name="Trazado 1020" d="M288.431,233.758a7.614,7.614,0,0,1,3.091,2.991,9.792,9.792,0,0,1,0,9.129,7.576,7.576,0,0,1-3.091,2.989,10.155,10.155,0,0,1-8.938,0,7.537,7.537,0,0,1-3.106-2.989,9.792,9.792,0,0,1,0-9.129,7.574,7.574,0,0,1,3.106-2.991,10.178,10.178,0,0,1,8.938,0Zm-6.938,4.476a4.313,4.313,0,0,0-1.006,3.079,4.249,4.249,0,0,0,1.006,3.064,3.281,3.281,0,0,0,2.475,1.051,3.244,3.244,0,0,0,2.465-1.051,4.312,4.312,0,0,0,.991-3.064,4.377,4.377,0,0,0-.991-3.079,3.237,3.237,0,0,0-2.465-1.064A3.274,3.274,0,0,0,281.492,238.233Z" transform="translate(-179.262 -225.513)" fill="#fff"/>
      <path id="Trazado_1021" data-name="Trazado 1021" d="M297.435,236.914a7.138,7.138,0,0,1,2.583,2.974,11.525,11.525,0,0,1,0,9.146,7.075,7.075,0,0,1-2.583,2.989,6.788,6.788,0,0,1-3.71,1.036,6.046,6.046,0,0,1-3.3-.871,5.064,5.064,0,0,1-2.012-2.37v3.031h-5.136V230.624h5.136v8.5a5.076,5.076,0,0,1,2.012-2.375,6.067,6.067,0,0,1,3.3-.869A6.786,6.786,0,0,1,297.435,236.914Zm-8.02,4.566a4.806,4.806,0,0,0,0,5.962,3.765,3.765,0,0,0,5.317.03,4.983,4.983,0,0,0,0-6,3.453,3.453,0,0,0-2.658-1.084A3.5,3.5,0,0,0,289.415,241.48Z" transform="translate(-167.214 -228.669)" fill="#fff"/>
      <path id="Trazado_1022" data-name="Trazado 1022" d="M292.058,230.609a3.608,3.608,0,0,1,4.445,0,2.511,2.511,0,0,1,.841,1.937,2.479,2.479,0,0,1-.841,1.91,3.618,3.618,0,0,1-4.445,0,2.479,2.479,0,0,1-.841-1.91A2.511,2.511,0,0,1,292.058,230.609Zm4.776,6.656v16.758H291.7V237.265Z" transform="translate(-155.273 -229.843)" fill="#fff"/>
      <path id="Trazado_1023" data-name="Trazado 1023" d="M300.013,230.624v22.225h-5.136V230.624Z" transform="translate(-149.772 -228.669)" fill="#fff"/>
      <path id="Trazado_1024" data-name="Trazado 1024" d="M298.994,230.609a3.608,3.608,0,0,1,4.445,0,2.511,2.511,0,0,1,.841,1.937,2.479,2.479,0,0,1-.841,1.91,3.618,3.618,0,0,1-4.445,0,2.479,2.479,0,0,1-.841-1.91A2.511,2.511,0,0,1,298.994,230.609Zm4.773,6.656v16.758h-5.134V237.265Z" transform="translate(-144.848 -229.843)" fill="#fff"/>
      <path id="Trazado_1025" data-name="Trazado 1025" d="M312.007,233.593a5.276,5.276,0,0,1,2.045,2.375v-3.034h5.106v16.758h-5.106v-3.031a5.264,5.264,0,0,1-2.045,2.37,6.04,6.04,0,0,1-3.3.871A6.786,6.786,0,0,1,305,248.866a7.079,7.079,0,0,1-2.586-2.989,11.524,11.524,0,0,1,0-9.146A7.142,7.142,0,0,1,305,233.758a6.784,6.784,0,0,1,3.707-1.034A6.06,6.06,0,0,1,312.007,233.593Zm-4.308,4.718a4.983,4.983,0,0,0,0,6,3.765,3.765,0,0,0,5.317-.03,4.806,4.806,0,0,0,0-5.962,3.5,3.5,0,0,0-2.658-1.1A3.453,3.453,0,0,0,307.7,238.311Z" transform="translate(-139.871 -225.513)" fill="#fff"/>
      <path id="Trazado_1026" data-name="Trazado 1026" d="M317.563,233.636a6.326,6.326,0,0,1,3.289-.9v5.5h-1.472a5.066,5.066,0,0,0-3.169.869,3.505,3.505,0,0,0-1.129,2.946v7.627h-5.134V232.918h5.134v3.151A7.3,7.3,0,0,1,317.563,233.636Z" transform="translate(-127.118 -225.496)" fill="#fff"/>
      <path id="Trazado_1027" data-name="Trazado 1027" d="M315.816,230.609a3.608,3.608,0,0,1,4.445,0,2.511,2.511,0,0,1,.841,1.937,2.479,2.479,0,0,1-.841,1.91,3.618,3.618,0,0,1-4.445,0,2.477,2.477,0,0,1-.839-1.91A2.509,2.509,0,0,1,315.816,230.609Zm4.776,6.656v16.758h-5.136V237.265Z" transform="translate(-119.561 -229.843)" fill="#fff"/>
      <path id="Trazado_1028" data-name="Trazado 1028" d="M328.831,233.593a5.255,5.255,0,0,1,2.042,2.375v-3.034h5.106v16.758h-5.106v-3.031a5.243,5.243,0,0,1-2.042,2.37,6.046,6.046,0,0,1-3.3.871,6.788,6.788,0,0,1-3.71-1.036,7.076,7.076,0,0,1-2.583-2.989,11.526,11.526,0,0,1,0-9.146,7.138,7.138,0,0,1,2.583-2.974,6.787,6.787,0,0,1,3.71-1.034A6.067,6.067,0,0,1,328.831,233.593Zm-4.31,4.718a4.982,4.982,0,0,0,0,6,3.765,3.765,0,0,0,5.316-.03,4.806,4.806,0,0,0,0-5.962,3.5,3.5,0,0,0-2.658-1.1A3.453,3.453,0,0,0,324.521,238.311Z" transform="translate(-114.584 -225.513)" fill="#fff"/>
      <path id="Trazado_1029" data-name="Trazado 1029" d="M331.729,237.452v5.134h-5.317v-5.134Z" transform="translate(-102.371 -218.406)" fill="#fff"/>
      <path id="Trazado_1030" data-name="Trazado 1030" d="M343.133,234.511a7.918,7.918,0,0,1,2.763,4.908H340.46a2.861,2.861,0,0,0-.991-1.68,2.921,2.921,0,0,0-1.892-.6,2.74,2.74,0,0,0-2.223,1.069,5.979,5.979,0,0,0,0,6.215,2.738,2.738,0,0,0,2.223,1.066,2.92,2.92,0,0,0,1.892-.6,2.869,2.869,0,0,0,.991-1.68H345.9a7.931,7.931,0,0,1-2.763,4.911A8.323,8.323,0,0,1,337.7,249.9a9.008,9.008,0,0,1-4.37-1.036,7.389,7.389,0,0,1-2.989-2.989,9.266,9.266,0,0,1-1.081-4.566,9.364,9.364,0,0,1,1.066-4.581,7.338,7.338,0,0,1,2.989-2.974,9.094,9.094,0,0,1,4.385-1.034A8.31,8.31,0,0,1,343.133,234.511Z" transform="translate(-98.098 -225.513)" fill="#fff"/>
      <path id="Trazado_1031" data-name="Trazado 1031" d="M349.8,233.758a7.619,7.619,0,0,1,3.094,2.991,9.811,9.811,0,0,1,0,9.129,7.581,7.581,0,0,1-3.094,2.989,10.15,10.15,0,0,1-8.936,0,7.558,7.558,0,0,1-3.109-2.989,9.811,9.811,0,0,1,0-9.129,7.6,7.6,0,0,1,3.109-2.991,10.172,10.172,0,0,1,8.936,0Zm-6.938,4.476a4.323,4.323,0,0,0-1.006,3.079,4.26,4.26,0,0,0,1.006,3.064,3.286,3.286,0,0,0,2.478,1.051,3.238,3.238,0,0,0,2.463-1.051,4.3,4.3,0,0,0,.991-3.064,4.365,4.365,0,0,0-.991-3.079,3.232,3.232,0,0,0-2.463-1.064A3.279,3.279,0,0,0,342.857,238.233Z" transform="translate(-87.024 -225.513)" fill="#fff"/>
      <path id="Trazado_1032" data-name="Trazado 1032" d="M371.222,234.645a7.479,7.479,0,0,1,1.772,5.3v9.732h-5.106v-9.131a3.427,3.427,0,0,0-.856-2.478,3.086,3.086,0,0,0-2.328-.886,3.145,3.145,0,0,0-2.418.949,3.74,3.74,0,0,0-.886,2.658v8.888h-5.136v-9.131a3.464,3.464,0,0,0-.841-2.478,3.036,3.036,0,0,0-2.313-.886,3.238,3.238,0,0,0-2.433.931,3.693,3.693,0,0,0-.9,2.676v8.888H344.64V232.918h5.136v2.851a4.983,4.983,0,0,1,2.028-2.22,6.128,6.128,0,0,1,3.2-.813,6.475,6.475,0,0,1,3.394.886,5.584,5.584,0,0,1,2.223,2.541,6.722,6.722,0,0,1,2.388-2.5,6.879,6.879,0,0,1,8.215.979Z" transform="translate(-74.975 -225.496)" fill="#fff"/>
    </g>
  </g>
</svg>
