<svg id="toilet" xmlns="http://www.w3.org/2000/svg" width="16.518" height="19.774" viewBox="0 0 16.518 19.774">
  <path id="Trazado_591" data-name="Trazado 591" d="M-482.19,1043.182a2.526,2.526,0,0,0-1.893-.854h-11.469a2.521,2.521,0,0,0-1.927.893,2.52,2.52,0,0,0-.563,2.047l.858,5.132a2.168,2.168,0,0,0,2.146,1.817h.975a6.933,6.933,0,0,0,.438.654h-.853a1.357,1.357,0,0,0-1.355,1.355,1.353,1.353,0,0,0,1.168,1.336,4.82,4.82,0,0,0,2.46,3.8,3.586,3.586,0,0,0-.847,2.27.458.458,0,0,0,.131.331.458.458,0,0,0,.328.138h5.668a.458.458,0,0,0,.328-.138.458.458,0,0,0,.131-.331,3.631,3.631,0,0,0-.887-2.316,4.841,4.841,0,0,0,2.377-3.754,1.353,1.353,0,0,0,1.168-1.336,1.357,1.357,0,0,0-1.355-1.355h-.842a6.9,6.9,0,0,0,.436-.654h1.187a2.179,2.179,0,0,0,2.158-1.905l.645-5.146A2.524,2.524,0,0,0-482.19,1043.182Zm-6.138,15.594a.459.459,0,0,0-.282.369.459.459,0,0,0,.183.426,2.609,2.609,0,0,1,.993,1.612h-4.651a2.62,2.62,0,0,1,.96-1.585.459.459,0,0,0,.176-.43.46.46,0,0,0-.289-.364,3.919,3.919,0,0,1-2.476-3.013.182.182,0,0,1,.181-.209h7.421a.182.182,0,0,1,.181.209A3.932,3.932,0,0,1-488.328,1058.776Zm3.6-4.549a.437.437,0,0,1-.436.436h-9.315a.437.437,0,0,1-.436-.436.437.437,0,0,1,.436-.436h9.315A.437.437,0,0,1-484.727,1054.227Zm-7.71-1.355a5,5,0,0,1-1.454-3.253c0-2.7,1.827-4.893,4.073-4.893s4.074,2.2,4.074,4.893a5.009,5.009,0,0,1-1.447,3.253Zm9.948-7.819-.646,5.147a1.256,1.256,0,0,1-1.247,1.1h-.474a.205.205,0,0,1-.194-.27,4.74,4.74,0,0,0,.224-1.41c0-3.2-2.24-5.812-4.992-5.812s-4.992,2.608-4.992,5.812a4.73,4.73,0,0,0,.225,1.41.205.205,0,0,1-.193.27h-.26a1.256,1.256,0,0,1-1.239-1.049l-.853-5.1a1.639,1.639,0,0,1,.062-.832,1.611,1.611,0,0,1,1.517-1.07h11.469a1.541,1.541,0,0,1,.539.089A1.614,1.614,0,0,1-482.49,1045.052Z" transform="translate(498.077 -1042.328)"/>
  <rect id="Rectángulo_905" data-name="Rectángulo 905" width="2.014" height="0.919" rx="0.459" transform="translate(12.343 1.617)"/>
</svg>
