<svg id="twitter" xmlns="http://www.w3.org/2000/svg" width="25.448" height="20.961" viewBox="0 0 25.448 20.961">
  <g id="Grupo_764" data-name="Grupo 764" transform="translate(0 0)">
    <g id="Grupo_759" data-name="Grupo 759">
      <path id="Trazado_978" data-name="Trazado 978" d="M297.386,678.93a10.464,10.464,0,0,1-2.571.735c.415-.069,1.025-.819,1.269-1.122a4.729,4.729,0,0,0,.856-1.559c.022-.044.039-.1-.005-.134a.147.147,0,0,0-.136.012,13.151,13.151,0,0,1-3.053,1.169.2.2,0,0,1-.21-.056,2.586,2.586,0,0,0-.267-.273,5.382,5.382,0,0,0-1.479-.906,5.152,5.152,0,0,0-2.268-.366,5.424,5.424,0,0,0-2.152.608,5.554,5.554,0,0,0-1.737,1.418,5.337,5.337,0,0,0-1.037,2.077,5.63,5.63,0,0,0-.055,2.192c.017.123.006.14-.105.123a16.309,16.309,0,0,1-10.492-5.341c-.123-.14-.189-.14-.29.011a5.32,5.32,0,0,0,.908,6.286c.2.2.417.389.645.568a5.36,5.36,0,0,1-2.025-.568c-.123-.078-.184-.033-.2.106a3.2,3.2,0,0,0,.033.6,5.38,5.38,0,0,0,3.316,4.288,3.076,3.076,0,0,0,.673.206,5.993,5.993,0,0,1-1.986.062c-.145-.028-.2.044-.145.184a5.587,5.587,0,0,0,4.172,3.494c.19.033.379.033.569.077-.011.017-.023.017-.034.034-.469.715-2.093,1.246-2.85,1.51a10.2,10.2,0,0,1-4.327.554c-.233-.034-.282-.031-.345,0s-.008.1.067.155c.295.2.6.367.9.534a14.253,14.253,0,0,0,2.893,1.157c5.2,1.436,11.054.38,14.957-3.5,3.065-3.046,4.139-7.245,4.139-11.451,0-.165.194-.255.31-.342a10.083,10.083,0,0,0,2.026-2.117.615.615,0,0,0,.126-.406v-.022C297.481,678.863,297.489,678.884,297.386,678.93Z" transform="translate(-272.033 -676.418)" fill="#f7f7f7"/>
    </g>
    <g id="Grupo_760" data-name="Grupo 760" transform="translate(7.557 20.871)">
      <path id="Trazado_979" data-name="Trazado 979" d="M281.951,703.807Z" transform="translate(-281.951 -703.807)" fill="#f7f7f7" fill-rule="evenodd"/>
    </g>
    <g id="Grupo_761" data-name="Grupo 761" transform="translate(7.363 20.871)">
      <path id="Trazado_980" data-name="Trazado 980" d="M281.89,703.807c-.033,0-.42,0,0,0Z" transform="translate(-281.696 -703.807)" fill="#f7f7f7" fill-rule="evenodd"/>
    </g>
    <g id="Grupo_762" data-name="Grupo 762" transform="translate(8.415 20.874)">
      <path id="Trazado_981" data-name="Trazado 981" d="M283.076,703.83c0-.043.45,0,0,0C283.076,703.808,283.131,703.83,283.076,703.83Z" transform="translate(-283.076 -703.811)" fill="#f7f7f7" fill-rule="evenodd"/>
    </g>
    <g id="Grupo_763" data-name="Grupo 763" transform="translate(17.309 0.031)">
      <path id="Trazado_982" data-name="Trazado 982" d="M294.855,676.459a.092.092,0,0,1-.106,0Z" transform="translate(-294.749 -676.459)" fill="#f7f7f7" fill-rule="evenodd"/>
    </g>
  </g>
</svg>
